# xmcd CD database file
#
# Track frame offsets:
#	150
#	32885
#	64260
#	87100
#	105925
#	138185
#	175195
#
# Disc length: 2722 seconds
#
# Revision: 0
# Processed by: cddbd v1.5.1PL0 Copyright (c) Steve Scherf et al.
# Submitted via: CDex 1.50
#
DISCID=510aa007
DTITLE=Tete Montoliu - Col Jazz and Blues # 72
DYEAR=1993
DGENRE=Jazz
TTITLE0=Stablemates
TTITLE1=Body And Soul
TTITLE2=En-Moción
TTITLE3=Polka Dots and Moonbeams
TTITLE4=Secret Love
TTITLE5=Fly Me To The Moon (In Other Words)
TTITLE6=Au Privave
EXTD=YEAR: 1993
EXTT0=
EXTT1=
EXTT2=
EXTT3=
EXTT4=
EXTT5=
EXTT6=
PLAYORDER=
